#!OML:ASF I:\Actors\actors\Patient Classification 2\Patient 1\Session 1\actor1.ASF
:FULLY-SPECIFIED
:DEGREES
674
root -1.02688 18.2447 5.69545 2.44898 -1.71508 -4.11888
lowerback 11.5843 0.72952 3.72862
upperback -0.758026 1.44576 -0.617822
thorax -7.20906 0.548985 -3.01294
lowerneck -1.20891 6.32971 8.1436
upperneck 1.63267 8.98974 -20.9229
head 2.05059 4.31693 -7.48597
rclavicle -1.82882e-014 -1.51076e-014
rhumerus 19.5671 33.9585 -59.1235
rradius 137.405
rwrist -38.6984
rhand -8.02262 -36.1245
rfingers 7.12502
rthumb 17.8871 -65.3219
lclavicle -1.82882e-014 -1.51076e-014
lhumerus -37.3145 -28.6901 100.873
lradius 88.2165
lwrist 10.816
lhand -1.75955 -21.5025
lfingers 7.12502
lthumb 23.904 7.02975
rfemur 0 0 0
rtibia 0
rfoot 0 0
rtoes 0
lfemur 13.9933 -5.74879 -12.2934
ltibia -16.7594
lfoot -3.17652 19.3066
ltoes -11.0355
675
root -1.02563 18.2448 5.7021 2.47463 -1.6811 -4.11011
lowerback 11.6724 0.753618 3.7526
upperback -0.868822 1.48307 -0.669848
thorax -7.37314 0.559381 -3.09263
lowerneck -0.85625 6.32037 8.3039
upperneck 1.29471 8.93482 -20.9997
head 1.89581 4.32559 -7.55695
rclavicle 6.55989e-015 7.95139e-016
rhumerus 17.1057 34.4667 -61.0117
rradius 137.679
rwrist -37.3437
rhand -6.94365 -35.573
rfingers 7.12502
rthumb 18.925 -64.6724
lclavicle 6.55989e-015 7.95139e-016
lhumerus -37.9758 -28.5618 101.03
lradius 88.1929
lwrist 10.5795
lhand -1.96074 -21.6662
lfingers 7.12502
lthumb 23.711 6.89125
rfemur 0 0 0
rtibia 0
rfoot 0 0
rtoes 0
lfemur 13.9637 -5.74972 -12.3056
ltibia -16.7257
lfoot -3.19067 19.2771
ltoes -10.9839
676
root -1.0239 18.2452 5.70945 2.51346 -1.66755 -4.11405
lowerback 11.7046 0.803012 3.75707
upperback -0.78717 1.54525 -0.722442
thorax -7.29735 0.591514 -3.16124
lowerneck -1.18783 6.39939 8.35116
upperneck 1.04889 8.99072 -20.9475
head 1.89207 4.34751 -7.53483
rclavicle 4.67144e-015 -1.98785e-015
rhumerus 16.6143 34.5572 -61.0099
rradius 138.085
rwrist -36.8414
rhand -6.79119 -35.7239
rfingers 7.12502
rthumb 19.0716 -64.8089
lclavicle 4.67144e-015 -1.98785e-015
lhumerus -38.1684 -28.5645 100.972
lradius 88.2572
lwrist 10.4993
lhand -1.8495 -21.5031
lfingers 7.12502
lthumb 23.8177 7.04046
rfemur 0 0 0
rtibia 0
rfoot 0 0
rtoes 0
lfemur 13.923 -5.69038 -12.3007
ltibia -16.6994
lfoot -3.18832 19.2155
ltoes -10.968
677
root -1.02057 18.2456 5.71829 2.56487 -1.68791 -4.07464
lowerback 11.672 0.718443 3.69823
upperback -0.936598 1.43524 -0.597694
thorax -7.45245 0.53684 -2.97804
lowerneck -0.362421 6.48007 8.01538
upperneck 0.396621 9.0279 -21.0217
head 1.55635 4.43951 -7.53587
rclavicle -4.72114e-015 -7.15625e-015
rhumerus 15.9789 35.2885 -61.0098
rradius 138.454
rwrist -36.6163
rhand -6.80485 -35.8105
rfingers 7.12502
rthumb 19.0585 -64.8967
lclavicle -4.72114e-015 -7.15625e-015
lhumerus -38.8564 -27.8181 101.285
lradius 88.3077
lwrist 10.2966
lhand -1.90779 -21.4458
lfingers 7.12502
lthumb 23.7618 7.10501
rfemur 0 0 0
rtibia 0
rfoot 0 0
rtoes 0
lfemur 13.8979 -5.66708 -12.3558
ltibia -16.6974
lfoot -3.20384 19.2028
ltoes -11.0076
678
root -1.01697 18.2453 5.72686 2.61792 -1.72094 -4.06678
lowerback 11.6268 0.727329 3.66388
upperback -0.90114 1.44102 -0.580469
thorax -7.38936 0.543484 -2.9395
lowerneck -0.442052 6.51459 8.09564
upperneck 0.0816891 9.02929 -21.2274
head 1.49593 4.45018 -7.61666
rclavicle 3.65764e-014 5.96354e-015
rhumerus 17.1861 35.3711 -59.2637
rradius 138.72
rwrist -36.8217
rhand -7.77921 -36.117
rfingers 7.12502
rthumb 18.1213 -65.2928
lclavicle 3.65764e-014 5.96354e-015
lhumerus -38.9848 -27.5709 101.287
lradius 88.2177
lwrist 10.2212
lhand -1.97397 -21.4161
lfingers 7.12502
lthumb 23.6984 7.14292
rfemur 0 0 0
rtibia 0
rfoot 0 0
rtoes 0
lfemur 13.8904 -5.73706 -12.3798
ltibia -16.7081
lfoot -3.29574 19.2668
ltoes -10.7718
679
root -1.01415 18.2451 5.73398 2.6766 -1.75194 -4.11717
lowerback 11.6031 0.709092 3.67755
upperback -0.904339 1.42084 -0.539184
thorax -7.38156 0.534147 -2.89929
lowerneck -0.452941 6.56551 8.14484
upperneck -0.207468 9.05767 -21.4005
head 1.43195 4.47687 -7.68264
rclavicle 1.68967e-014 -2.78299e-015
rhumerus 17.3296 35.6144 -58.6366
rradius 138.949
rwrist -36.4849
rhand -8.1107 -35.9417
rfingers 7.12502
rthumb 17.8023 -65.1468
lclavicle 1.68967e-014 -2.78299e-015
lhumerus -39.2585 -27.2294 101.303
lradius 88.1983
lwrist 10.144
lhand -2.03545 -21.5439
lfingers 7.12502
lthumb 23.6394 7.02281
rfemur 0 0 0
rtibia 0
rfoot 0 0
rtoes 0
lfemur 13.8706 -5.77134 -12.33
ltibia -16.7173
lfoot -3.38964 19.3022
ltoes -10.5813
680
root -1.01131 18.2443 5.74191 2.69351 -1.75989 -4.12841
lowerback 11.6305 0.687873 3.68446
upperback -0.90086 1.39551 -0.526621
thorax -7.39557 0.521482 -2.8861
lowerneck -0.49889 6.62794 8.19836
upperneck -0.44992 9.10662 -21.5247
head 1.38831 4.50984 -7.73061
rclavicle -1.83379e-014 2.14687e-014
rhumerus 16.8446 35.9508 -58.6933
rradius 139.159
rwrist -35.7436
rhand -8.15216 -35.6924
rfingers 7.12502
rthumb 17.7624 -64.9012
lclavicle -1.83379e-014 2.14687e-014
lhumerus -39.632 -26.9667 101.316
lradius 88.2942
lwrist 10.063
lhand -2.0981 -21.6337
lfingers 7.12502
lthumb 23.5793 6.94075
rfemur 0 0 0
rtibia 0
rfoot 0 0
rtoes 0
lfemur 13.8922 -5.75829 -12.3317
ltibia -16.727
lfoot -3.39203 19.2952
ltoes -10.8078
681
root -1.00797 18.2427 5.75141 2.68475 -1.73754 -4.06961
lowerback 11.6793 0.687895 3.63754
upperback -0.890522 1.38777 -0.56493
thorax -7.41287 0.518463 -2.9
lowerneck -0.58662 6.67518 8.34585
upperneck -0.640783 9.14117 -21.6353
head 1.36837 4.53101 -7.78895
rclavicle -6.4605e-015 5.1684e-015
rhumerus 16.2902 36.0876 -58.8343
rradius 139.408
rwrist -35.1924
rhand -8.01738 -35.5462
rfingers 7.12502
rthumb 17.8921 -64.7432
lclavicle -6.4605e-015 5.1684e-015
lhumerus -39.9504 -26.8478 101.308
lradius 88.3862
lwrist 9.9985
lhand -2.09239 -21.5329
lfingers 7.12502
lthumb 23.5848 7.04078
rfemur 0 0 0
rtibia 0
rfoot 0 0
rtoes 0
lfemur 13.9375 -5.75969 -12.4195
ltibia -16.7445
lfoot -3.35591 19.2892
ltoes -11.0057
682
root -1.00554 18.2423 5.75983 2.72574 -1.70752 -4.02371
lowerback 11.6821 0.689979 3.58148
upperback -0.905265 1.37944 -0.612746
thorax -7.4309 0.514979 -2.91797
lowerneck -0.622912 6.72216 8.53531
upperneck -0.851559 9.17324 -21.7443
head 1.33561 4.55463 -7.8565
rclavicle -2.18663e-015 -2.38542e-015
rhumerus 15.8245 35.9648 -58.9173
rradius 139.713
rwrist -35.0638
rhand -7.80313 -35.3887
rfingers 7.12502
rthumb 18.0983 -64.5667
lclavicle -2.18663e-015 -2.38542e-015
lhumerus -40.2353 -26.749 101.275
lradius 88.4663
lwrist 10.0409
lhand -2.05491 -21.2984
lfingers 7.12502
lthumb 23.6207 7.27067
rfemur 0 0 0
rtibia 0
rfoot 0 0
rtoes 0
lfemur 13.9205 -5.76483 -12.4794
ltibia -16.7733
lfoot -3.33547 19.2862
ltoes -11.0038
683
root -1.00533 18.2412 5.76641 2.72633 -1.6915 -4.032
lowerback 11.7426 0.672013 3.54583
upperback -0.924763 1.35272 -0.617899
thorax -7.48894 0.501596 -2.90047
lowerneck -0.578204 6.77809 8.65807
upperneck -1.12845 9.21041 -21.8953
head 1.2701 4.58833 -7.93017
rclavicle -5.86415e-015 8.74653e-015
rhumerus 15.447 35.9065 -58.9828
rradius 140.034
rwrist -34.9345
rhand -7.55931 -35.454
rfingers 7.12502
rthumb 18.3328 -64.6101
lclavicle -5.86415e-015 8.74653e-015
lhumerus -40.5445 -26.5556 101.262
lradius 88.5572
lwrist 10.1461
lhand -2.06231 -21.2083
lfingers 7.12502
lthumb 23.6136 7.3617
rfemur 0 0 0
rtibia 0
rfoot 0 0
rtoes 0
lfemur 13.9507 -5.72652 -12.4598
ltibia -16.7939
lfoot -3.37831 19.2173
ltoes -10.8666
684
root -1.00574 18.2366 5.77325 2.60832 -1.72589 -4.07617
lowerback 11.9144 0.669943 3.54377
upperback -0.919152 1.35718 -0.602596
thorax -7.58095 0.501972 -2.88811
lowerneck -0.433936 6.82584 8.6889
upperneck -1.48013 9.22573 -21.996
head 1.15537 4.62076 -7.97816
rclavicle 1.64991e-014 1.59028e-015
rhumerus 15.0303 35.9554 -59.0968
rradius 140.369
rwrist -34.6607
rhand -7.19867 -35.523
rfingers 7.12502
rthumb 18.6797 -64.6461
lclavicle 1.64991e-014 1.59028e-015
lhumerus -40.8577 -26.3335 101.289
lradius 88.6419
lwrist 10.2098
lhand -1.99319 -21.2837
lfingers 7.12502
lthumb 23.6799 7.27777
rfemur 0 0 0
rtibia 0
rfoot 0 0
rtoes 0
lfemur 14.1261 -5.46018 -12.3865
ltibia -16.8177
lfoot -3.34076 18.9451
ltoes -10.9813
685
root -1.00484 18.237 5.77961 2.63661 -1.65414 -4.07886
lowerback 11.9439 0.653402 3.52753
upperback -0.953647 1.33488 -0.598439
thorax -7.63693 0.490065 -2.87184
lowerneck -0.286579 6.87019 8.57795
upperneck -1.82656 9.23255 -21.9137
head 1.02282 4.64928 -7.94304
rclavicle 9.44227e-016 -3.57812e-015
rhumerus 14.6035 35.9266 -59.1644
rradius 140.755
rwrist -34.5947
rhand -6.74424 -35.3946
rfingers 7.12502
rthumb 19.1168 -64.4751
lclavicle 9.44227e-016 -3.57812e-015
lhumerus -41.1433 -26.146 101.354
lradius 88.7405
lwrist 10.1508
lhand -1.93165 -21.2911
lfingers 7.12502
lthumb 23.739 7.26266
rfemur 0 0 0
rtibia 0
rfoot 0 0
rtoes 0
lfemur 14.1069 -5.26356 -12.3534
ltibia -16.8521
lfoot -3.20748 18.6843
ltoes -11.1676
